# xmcd
#
# Track frame offsets: 
#        150
#        10565
#        21335
#        35842
#        43795
#        54417
#        67892
#        78835
#        93800
#        105727
#        116270
#        127635
#        151575
#        171027
#        183100
#        194707
#        207250
#        221595
#        237512
#        249460
#        263612
#        271835
#
# Disc length: 3788 seconds
#
# Revision: 0
# Processed by: cddbd v1.5.1PL0 Copyright (c) Steve Scherf et al.
# Submitted via: ExactAudioCopy v0.95b2
#
DISCID=170eca16
DTITLE=Various Artist - To nejlepsi z ceske country 5  Country usmevy
DYEAR=2005
DGENRE=Country
TTITLE0=Greenhorns - Kdyz nas tata hral
TTITLE1=Yvonne Prenosilova - On je cvok
TTITLE2=Karel Gott - Della
TTITLE3=Rangers - Plavci
TTITLE4=KTO - U tri louzi
TTITLE5=Ladislav Vodicka - Ja tu zemi znam
TTITLE6=Waldemar Matuska a Olga Blechova - Kvete mak a slunce pali
TTITLE7=Lehka noha - Tuzemskej rum
TTITLE8=Jiri Grossmann - Sve banjo odhazuji v dal
TTITLE9=Los Brnos a Radek Rettegy - Pupinky
TTITLE10=Schovanky - Diggy Liggy
TTITLE11=Michal Tucny - Kosmickej vandr
TTITLE12=Mirek Cerny - Balicek karet
TTITLE13=Pacifik - Prvni dama country
TTITLE14=Waldemar Matuska - Co delas, to delej rad
TTITLE15=Taxmeni - Socha svobody
TTITLE16=Grosaci - Dabluv kopec
TTITLE17=Michal Tucny - Mam paru
TTITLE18=KTO - Zradne banjo
TTITLE19=Schovanky - Mejdan ve stodole
TTITLE20=Honza Vycital - Tri melouny
TTITLE21=Waldemar Matuska - To vsechno odnes cas
EXTD=
EXTT0=
EXTT1=
EXTT2=
EXTT3=
EXTT4=
EXTT5=
EXTT6=
EXTT7=
EXTT8=
EXTT9=
EXTT10=
EXTT11=
EXTT12=
EXTT13=
EXTT14=
EXTT15=
EXTT16=
EXTT17=
EXTT18=
EXTT19=
EXTT20=
EXTT21=
PLAYORDER=
